<svg xmlns="http://www.w3.org/2000/svg" width="24" height="24" version="1.2" viewBox="0 0 24 24"><style/><path fill-rule="evenodd" d="m11.5 5c4.3-0.2 8 3.2 8.1 7.5 0.2 4.3-3.2 8-7.5 8.1-4.3 0.2-7.9-3.2-8.1-7.5-0.2-4.3 3.2-7.9 7.5-8.1zm5.1 3.4c0-0.4-0.3-0.7-0.7-0.7-0.4 0-0.7 0.3-0.7 0.7 0 0.4 0.4 0.7 0.8 0.7 0.3 0 0.7-0.3 0.6-0.7zm-0.9 4.3c-0.1-2.2-1.9-3.9-4-3.8-2.2 0.1-3.9 1.9-3.8 4.1 0.1 2.1 1.9 3.8 4.1 3.7 2.1-0.1 3.8-1.9 3.7-4zm-3.8 3.3c-1.7 0.1-3.2-1.3-3.3-3.1 0-1.7 1.3-3.2 3.1-3.3 1.8 0 3.3 1.3 3.3 3.1 0.1 1.8-1.3 3.3-3.1 3.3z"/></svg>